Coordinates
version=1
nRows=12
nColumns=24
inDegrees=yes

Units are S.I. units (second, meters, Newtons, ...)
Angles are in degrees.

endheader
time	pelvis_tilt	pelvis_list	pelvis_rotation	pelvis_tx	pelvis_ty	pelvis_tz	hip_flexion_r	hip_adduction_r	hip_rotation_r	knee_angle_r	ankle_angle_r	subtalar_angle_r	mtp_angle_r	hip_flexion_l	hip_adduction_l	hip_rotation_l	knee_angle_l	ankle_angle_l	subtalar_angle_l	mtp_angle_l	lumbar_extension	lumbar_bending	lumbar_rotation
      1.32950000	     -2.09937198	      7.17813742	     -0.95669718	      0.20388954	      0.99256684	      0.30982213	     19.05690131	     -7.46595460	      0.77241295	    -69.17233305	     -4.90525641	    -10.83826240	      2.98503712	     10.83537762	     12.11856208	     -0.04925765	    -10.81076876	      1.19685609	    -12.28949622	     -0.80579046	      1.50524550	     -5.03817095	      2.94522904
      1.33366667	     -2.01752093	      7.10052166	     -0.96798556	      0.20902237	      0.99325449	      0.30974465	     19.55658828	     -7.32259542	      0.92755653	    -69.00506040	     -4.06465838	    -10.97438045	      2.99047648	     10.26717242	     12.06109718	      0.07143977	    -10.54912378	      1.35117478	    -12.27857321	     -0.80629383	      1.41139330	     -4.95026923	      2.89949352
      1.33783333	     -1.91824178	      7.02152731	     -0.97878454	      0.21414464	      0.99395405	      0.30965424	     20.02115149	     -7.18135343	      1.07491641	    -68.77653918	     -3.23391213	    -11.10090301	      2.99178456	      9.67637704	     12.00481825	      0.21174964	    -10.27794236	      1.49221962	    -12.28225997	     -0.81066963	      1.28294225	     -4.84986355	      2.85071672
      1.34200000	     -1.80750026	      6.95998924	     -0.98810036	      0.21928120	      0.99463043	      0.30957356	     20.45821267	     -7.06469016	      1.21333652	    -68.49337826	     -2.43594169	    -11.20101090	      2.97515612	      9.05612375	     11.96906538	      0.38536858	     -9.97189681	      1.60666137	    -12.34371427	     -0.82919098	      1.15096858	     -4.79225705	      2.78783587
      1.34616667	     -1.71256615	      6.87398105	     -0.99061480	      0.22438160	      0.99525761	      0.30948686	     20.89637920	     -6.91991138	      1.34279941	    -68.15243063	     -1.64542445	    -11.29719525	      2.95581950	      8.46898388	     11.90502490	      0.54488439	     -9.69700955	      1.74326522	    -12.38556507	     -0.85158512	      1.03549073	     -4.68913585	      2.73779519
      1.35033333	     -1.65435200	      6.75638324	     -0.98361237	      0.22946780	      0.99581966	      0.30940841	     21.35189336	     -6.73674290	      1.45846691	    -67.74296659	     -0.88743059	    -11.38369580	      2.95066325	      7.94131066	     11.80237887	      0.67590078	     -9.46390318	      1.90355530	    -12.39941373	     -0.86330492	      0.96792783	     -4.54011721	      2.70251933
      1.35450000	     -1.57154769	      6.66736984	     -0.97957837	      0.23454648	      0.99635398	      0.30932705	     21.77373931	     -6.59152231	      1.57342226	    -67.29827930	     -0.12192148	    -11.46825592	      2.94271319	      7.37910944	     11.73126695	      0.82220327	     -9.21028586	      2.06183637	    -12.41350861	     -0.87774547	      0.86111015	     -4.43315743	      2.65918818
      1.35866667	     -1.43778639	      6.59371934	     -0.97778913	      0.23961985	      0.99693638	      0.30924097	     22.12203751	     -6.47036336	      1.68406356	    -66.79415697	      0.60789427	    -11.51705994	      2.90727578	      6.74202076	     11.68166013	      1.02152483	     -8.91251345	      2.17709295	    -12.48654402	     -0.91788747	      0.68166219	     -4.35871444	      2.58626521
      1.36283333	     -1.39788173	      6.48397301	     -0.95919358	      0.24466307	      0.99735000	      0.30916061	     22.55700748	     -6.30571493	      1.77497523	    -66.23885479	      1.30167271	    -11.57627675	      2.89520503	      6.24304488	     11.58503946	      1.16420593	     -8.68923174	      2.33999939	    -12.51234794	     -0.93607742	      0.62180860	     -4.21645128	      2.55159220
      1.36700000	     -1.27116230	      6.41188685	     -0.94814772	      0.24972556	      0.99784511	      0.30907805	     22.87976905	     -6.19250274	      1.86665803	    -65.63386950	      1.99633204	    -11.61060560	      2.84670512	      5.62089038	     11.53382175	      1.36053136	     -8.40363608	      2.46376132	    -12.59212339	     -0.98823445	      0.45907162	     -4.15096041	      2.47651428
      1.37116667	     -1.20104496	      6.30960876	     -0.92006878	      0.25475905	      0.99824007	      0.30899542	     23.24356405	     -6.04373166	      1.93997006	    -64.97196336	      2.65610190	    -11.66401545	      2.80215654	      5.08504914	     11.44566071	      1.53518837	     -8.16887981	      2.61769192	    -12.64518837	     -1.03479538	      0.36006155	     -4.03284657	      2.42145108
      1.37533333	     -1.11780326	      6.21815373	     -0.89215988	      0.25978413	      0.99860169	      0.30890787	     23.58010111	     -5.91253988	      2.00883151	    -64.26658433	      3.28881290	    -11.70432833	      2.74936281	      4.53480305	     11.36814023	      1.70892944	     -7.92875417	      2.76645880	    -12.70060873	     -1.08731197	      0.24309421	     -3.93063548	      2.35992816
